# File created by Blade
# Date/Time:  Thu Jan 15 19:03:44 2015
#---------------------------------------------------------
:version 1.10
:name HOM
:units
  mass 1.0
  length 1.000000
  angle deg
:documentation
     Acclaim Skeleton File
:root
   axis xyz
   order TX TY TZ RX RY RZ
   position 0.000000 0.000000 0.000000
   orientation 0 0 0
:bonedata
   begin
      id 1
      name Spine_dum
      direction 0.000000 1.000000 0.000000
      length 4.354460
      axis 0.0 0.0 0.0 xyz
   end
   begin
      id 2
      name LeftUpLeg_dum
      direction 1.000000 0.000000 0.000000
      length 4.291077
      axis 0.0 0.0 0.0 xyz
   end
   begin
      id 3
      name RightUpLeg_dum
      direction -1.000000 0.000000 0.000000
      length 4.291077
      axis 0.0 0.0 0.0 xyz
   end
   begin
      id 4
      name Spine
      direction 0.000000 1.000000 0.000000
      length 0.000000
      axis 0.0 0.0 0.0 xyz
      dof rx ry rz
   end
   begin
      id 5
      name Spine_dum1
      direction 0.000000 1.000000 0.000000
      length 16.581769
      axis 0.0 0.0 0.0 xyz
   end
   begin
      id 6
      name Spine_dum2
      direction 0.000000 1.000000 0.000000
      length 12.903700
      axis 0.0 0.0 0.0 xyz
   end
   begin
      id 7
      name Spine_dum3
      direction 0.000000 1.000000 0.000000
      length 12.903700
      axis 0.0 0.0 0.0 xyz
   end
   begin
      id 8
      name Head
      direction 0.000000 1.000000 0.000000
      length 4.527550
      axis 0.0 0.0 0.0 xyz
      dof rx ry rz
   end
   begin
      id 9
      name LeftShoulder
      direction 1.000000 0.000000 0.000000
      length 6.942033
      axis 0.0 0.0 -90.0 xyz
      dof rx ry rz
   end
   begin
      id 10
      name LeftArm
      direction 1.000000 0.000000 0.000000
      length 11.010391
      axis 0.0 0.0 -90.0 xyz
      dof rx ry rz
   end
   begin
      id 11
      name LeftForeArm
      direction 1.000000 0.000000 0.000000
      length 8.054994
      axis 0.0 0.0 -90.0 xyz
      dof rz ry rx
   end
   begin
      id 12
      name LeftHand
      direction 0.000000 0.000000 0.000000
      length 0.000000
      axis 0.0 0.0 -90.0 xyz
      dof rx ry rz
   end
   begin
      id 13
      name LeftHand_dum1
      direction 0.000000 0.000000 0.000000
      length 0.000000
      axis 0.0 0.0 -90.0 xyz
   end
   begin
      id 14
      name LeftHand_dum2
      direction 1.000000 0.000000 0.000000
      length 3.937000
      axis 0.0 0.0 -90.0 xyz
   end
   begin
      id 15
      name LeftHandThumb1
      direction 0.000000 0.000000 1.000000
      length 3.937000
      axis 0.0 0.0 -90.0 xyz
      dof rx ry rz
   end
   begin
      id 16
      name RightShoulder
      direction -1.000000 0.000000 0.000000
      length 6.942033
      axis 0.0 0.0 90.0 xyz
      dof rx ry rz
   end
   begin
      id 17
      name RightArm
      direction -1.000000 0.000000 0.000000
      length 11.010391
      axis 0.0 0.0 90.0 xyz
      dof rx ry rz
   end
   begin
      id 18
      name RightForeArm
      direction -1.000000 0.000000 0.000000
      length 8.054994
      axis 0.0 0.0 90.0 xyz
      dof rz ry rx
   end
   begin
      id 19
      name RightHand
      direction 0.000000 0.000000 0.000000
      length 0.000000
      axis 0.0 0.0 90.0 xyz
      dof rx ry rz
   end
   begin
      id 20
      name RightHand_dum1
      direction 0.000000 0.000000 0.000000
      length 0.000000
      axis 0.0 0.0 90.0 xyz
   end
   begin
      id 21
      name RightHand_dum2
      direction -1.000000 0.000000 0.000000
      length 3.937000
      axis 0.0 0.0 90.0 xyz
   end
   begin
      id 22
      name RightHandThumb1
      direction 0.000000 0.000000 1.000000
      length 3.937000
      axis 0.0 0.0 90.0 xyz
      dof rx ry rz
   end
   begin
      id 23
      name LeftUpLeg
      direction 0.000000 -1.000000 0.000000
      length 17.039958
      axis 0.0 0.0 0.0 xyz
      dof rx ry rz
   end
   begin
      id 24
      name LeftLeg
      direction 0.000000 -1.000000 0.000000
      length 16.939743
      axis 0.0 0.0 0.0 xyz
      dof rx ry rz
   end
   begin
      id 25
      name LeftFoot
      direction 0.000000 -0.258819 0.965926
      length 5.235044
      axis 15.0 0.0 0.0 xyz
      dof rx ry rz
   end
   begin
      id 26
      name LeftToeBase
      direction 0.000000 0.000000 1.000000
      length 2.952750
      axis 0.0 0.0 0.0 xyz
      dof rx ry rz
   end
   begin
      id 27
      name RightUpLeg
      direction 0.000000 -1.000000 0.000000
      length 17.039958
      axis 0.0 0.0 0.0 xyz
      dof rx ry rz
   end
   begin
      id 28
      name RightLeg
      direction 0.000000 -1.000000 0.000000
      length 16.939743
      axis 0.0 0.0 0.0 xyz
      dof rx ry rz
   end
   begin
      id 29
      name RightFoot
      direction 0.000000 -0.258819 0.965926
      length 5.235044
      axis 15.0 0.0 0.0 xyz
      dof rx ry rz
   end
   begin
      id 30
      name RightToeBase
      direction 0.000000 0.000000 1.000000
      length 2.952750
      axis 0.0 0.0 0.0 xyz
      dof rx ry rz
   end
:hierarchy
   begin
      root Spine_dum LeftUpLeg_dum RightUpLeg_dum
      Spine_dum Spine
      LeftUpLeg_dum LeftUpLeg
      RightUpLeg_dum RightUpLeg
      Spine Spine_dum1 Spine_dum2 Spine_dum3
      Spine_dum1 Head
      Spine_dum2 LeftShoulder
      Spine_dum3 RightShoulder
      LeftShoulder LeftArm
      LeftArm LeftForeArm
      LeftForeArm LeftHand
      LeftHand LeftHand_dum1 LeftHand_dum2
      LeftHand_dum1 LeftHandThumb1
      RightShoulder RightArm
      RightArm RightForeArm
      RightForeArm RightHand
      RightHand RightHand_dum1 RightHand_dum2
      RightHand_dum1 RightHandThumb1
      LeftUpLeg LeftLeg
      LeftLeg LeftFoot
      LeftFoot LeftToeBase
      RightUpLeg RightLeg
      RightLeg RightFoot
      RightFoot RightToeBase
   end

# File created by Blade
# Date/Time:  Thu Jan 15 19:03:33 2015
# Frame Rate: 120.000 fps
#------------------------------------------------------
:FULLY-SPECIFIED
:DEGREES
2038
root -2.075277 35.945675 -8.412611 -177.864240 4.066630 -172.149421
Spine 6.890883 9.287582 -1.710791
Head -5.970430 -1.634003 18.233632
LeftShoulder -5.867097 13.355993 0.252333
LeftArm 18.233581 -4.970906 -78.511503
LeftForeArm -0.000000 1.164921 15.261903
LeftHand 3.187091 -0.000000 1.375767
LeftHandThumb1 -26.253704 33.147579 0.000000
RightShoulder -20.191900 -6.772441 7.632543
RightArm 5.387558 -4.275240 73.373282
RightForeArm 0.000000 -30.760594 37.177053
RightHand 2.586776 -0.000000 3.176603
RightHandThumb1 -24.326973 -32.862282 -0.000000
LeftUpLeg -1.164492 21.039549 -5.469689
LeftLeg -0.572151 -0.000000 0.000000
LeftFoot -17.016343 20.774099 -8.737474
LeftToeBase 20.179439 -0.000000 -0.000000
RightUpLeg -56.376520 -7.334220 4.402714
RightLeg 92.281902 -0.000000 -0.000000
RightFoot 7.938147 -42.441309 -7.582787
RightToeBase 2.814687 -0.000000 -0.000000
2039
root -2.087305 35.943608 -8.412302 -177.482152 4.157549 -172.118651
Spine 6.797270 9.255322 -1.807970
Head -6.196994 -1.419214 18.225126
LeftShoulder -5.886309 13.326582 0.313225
LeftArm 18.214573 -4.927525 -78.502976
LeftForeArm -0.000000 1.190210 15.283370
LeftHand 3.213810 -0.000000 1.167254
LeftHandThumb1 -26.253704 33.147579 0.000000
RightShoulder -20.145292 -6.773028 7.523059
RightArm 5.278943 -4.306727 73.492404
RightForeArm -0.000000 -30.596420 37.428016
RightHand 2.549373 -0.000000 3.051044
RightHandThumb1 -24.326973 -32.862282 -0.000000
LeftUpLeg -1.517254 20.996593 -5.620630
LeftLeg -0.714136 -0.000000 0.000000
LeftFoot -16.894265 21.024583 -8.526631
LeftToeBase 20.159547 -0.000000 -0.000000
RightUpLeg -55.729511 -7.932885 4.304774
RightLeg 92.507947 -0.000000 -0.000000
RightFoot 8.325733 -42.244541 -7.710928
RightToeBase 2.909099 -0.000000 -0.000000
2040
root -2.095723 35.944028 -8.413174 -177.098616 4.275892 -172.050490
Spine 6.711765 9.309238 -1.857051
Head -6.418348 -1.275951 18.231922
LeftShoulder -5.873154 13.278555 0.322117
LeftArm 18.203467 -4.933280 -78.465693
LeftForeArm -0.000000 1.297003 15.299917
LeftHand 3.276523 0.000000 1.155536
LeftHandThumb1 -26.253704 33.147579 0.000000
RightShoulder -20.124884 -6.807756 7.458117
RightArm 5.205155 -4.352593 73.591783
RightForeArm -0.000000 -30.503696 37.620571
RightHand 2.664877 0.000000 2.326436
RightHandThumb1 -24.326973 -32.862282 -0.000000
LeftUpLeg -1.857803 20.927003 -5.732942
LeftLeg -0.844348 -0.000000 0.000000
LeftFoot -16.769464 21.290898 -8.477712
LeftToeBase 19.793731 -0.000000 -0.000000
RightUpLeg -55.034386 -8.484482 4.251833
RightLeg 92.699225 -0.000000 -0.000000
RightFoot 8.509843 -42.065809 -7.704142
RightToeBase 2.784076 -0.000000 -0.000000
2041
root -2.103726 35.946037 -8.417593 -176.696076 4.423352 -171.900582
Spine 6.600395 9.391003 -1.807635
Head -6.640652 -1.106015 18.177472
LeftShoulder -5.880882 13.247438 0.274741
LeftArm 18.179370 -4.961501 -78.403114
LeftForeArm 0.000000 1.314141 15.364962
LeftHand 3.295232 0.000000 1.124845
LeftHandThumb1 -26.253704 33.147579 0.000000
RightShoulder -20.087611 -6.799473 7.380826
RightArm 5.074837 -4.326161 73.677784
RightForeArm 0.000000 -30.533001 37.788510
RightHand 2.876107 -0.000000 2.040258
RightHandThumb1 -24.326973 -32.862282 -0.000000
LeftUpLeg -2.210996 20.882021 -5.769870
LeftLeg -0.972785 -0.000000 0.000000
LeftFoot -16.682640 21.560191 -8.425456
LeftToeBase 19.385034 -0.000000 -0.000000
RightUpLeg -54.319538 -9.061084 4.323962
RightLeg 92.785722 -0.000000 -0.000000
RightFoot 9.059800 -42.110136 -8.067736
RightToeBase 2.490427 -0.000000 -0.000000
2042
root -2.108139 35.945478 -8.420404 -176.295739 4.619882 -171.809427
Spine 6.490716 9.546860 -1.846523
Head -6.862884 -0.996128 18.172228
LeftShoulder -5.855088 13.245031 0.290923
LeftArm 18.189713 -4.771456 -78.266132
LeftForeArm -0.000000 1.059901 15.384221
LeftHand 3.335283 -0.000000 1.172350
LeftHandThumb1 -26.253704 33.147579 0.000000
RightShoulder -20.063057 -6.868843 7.336516
RightArm 5.016043 -4.313204 73.781485
RightForeArm 0.000000 -30.486952 37.953348
RightHand 3.053639 0.000000 1.559225
RightHandThumb1 -24.326973 -32.862282 -0.000000
LeftUpLeg -2.564039 20.910379 -5.865534
LeftLeg -1.119324 -0.000000 0.000000
LeftFoot -16.591847 21.836789 -8.254965
LeftToeBase 19.147959 -0.000000 -0.000000
RightUpLeg -53.604232 -9.583693 4.331406
RightLeg 92.887527 -0.000000 -0.000000
RightFoot 9.224362 -42.130933 -8.088554
RightToeBase 2.523159 -0.000000 -0.000000
